<?xml version="1.0" encoding="utf-8"?>
<!-- Generator: Adobe Illustrator 28.3.0, SVG Export Plug-In . SVG Version: 6.00 Build 0)  -->
<svg version="1.1" id="Layer_1" xmlns="http://www.w3.org/2000/svg" xmlns:xlink="http://www.w3.org/1999/xlink" x="0px" y="0px"
	 viewBox="0 0 1000 600" style="enable-background:new 0 0 1000 600;" xml:space="preserve">
<style type="text/css">
	.st0{fill:#FFFFFF;}
</style>
<g>
	<path class="st0" d="M728.26,211.29l-89.8-74.81c-13.69-11.4-30.94-17.65-48.75-17.65H551.4c-5.09,23.72-26.16,41.52-51.41,41.52
		c-25.24,0-46.31-17.79-51.39-41.52h-38.3c-17.81,0-35.06,6.24-48.75,17.64l-89.81,74.81c-4.95,4.13-5.42,11.57-1.02,16.28
		l61.16,65.54c4.02,4.31,10.68,4.78,15.26,1.07l35.59-28.75v204.5c0,6.2,5.03,11.23,11.23,11.23h212.09
		c6.2,0,11.23-5.03,11.23-11.23v-204.5l35.59,28.75c4.58,3.7,11.24,3.23,15.26-1.07l61.16-65.54
		C733.68,222.86,733.21,215.41,728.26,211.29z M450.98,401.5l22.93-115.94c-12.86-8.49-21.35-23.06-21.35-39.62
		c0-26.2,21.24-47.44,47.44-47.44c20.06,0,37.19,12.45,44.13,30.04c-6.9,3.2-14.4,4.97-22.25,4.97c-0.18,0-0.36-0.01-0.54-0.01
		c0.85,7.64,6.33,13.53,12.97,13.53c5.62,0,10.39-4.22,12.25-10.14c0.57,2.93,0.87,5.96,0.87,9.06c0,16.56-8.49,31.13-21.35,39.62
		l22.93,115.94H450.98z"/>
	<path class="st0" d="M486.75,227.16c-0.33,1.36-0.5,2.79-0.5,4.28c0,8.61,5.86,15.59,13.09,15.59c6.64,0,12.13-5.9,12.97-13.53
		c-0.18,0-0.36,0.01-0.54,0.01C502.86,233.5,494.39,231.24,486.75,227.16z"/>
</g>
</svg>
